<?xml version="1.0" encoding="UTF-8" standalone="no"?>
<!DOCTYPE svg PUBLIC "-//W3C//DTD SVG 1.1//EN"
 "http://www.w3.org/Graphics/SVG/1.1/DTD/svg11.dtd">
<!-- Generated by graphviz version 2.47.0 (20210316.0004)
 -->
<!-- Title: dependencies Pages: 1 -->
<svg width="504pt" height="284pt"
 viewBox="0.00 0.00 504.00 284.00" xmlns="http://www.w3.org/2000/svg" xmlns:xlink="http://www.w3.org/1999/xlink">
<g id="graph0" class="graph" transform="scale(1 1) rotate(0) translate(4 280)">
<title>dependencies</title>
<polygon fill="white" stroke="transparent" points="-4,4 -4,-280 500,-280 500,4 -4,4"/>
<text text-anchor="start" x="227.01" y="-42.4" font-family="Times-12" font-weight="bold" font-size="14.00">Legend</text>
<polygon fill="#ffffb3" stroke="transparent" points="14,-10 14,-30 34,-30 34,-10 14,-10"/>
<text text-anchor="start" x="37.63" y="-15.4" font-family="Times-12" font-size="14.00"> &#160;Declarations</text>
<polygon fill="#8dd3c7" stroke="transparent" points="127,-10 127,-30 147,-30 147,-10 127,-10"/>
<text text-anchor="start" x="150.73" y="-15.4" font-family="Times-12" font-size="14.00"> &#160;Module</text>
<polygon fill="#80b1d3" stroke="transparent" points="213,-10 213,-30 233,-30 233,-10 213,-10"/>
<text text-anchor="start" x="236.78" y="-15.4" font-family="Times-12" font-size="14.00"> &#160;Bootstrap</text>
<polygon fill="#fdb462" stroke="transparent" points="310,-10 310,-30 330,-30 330,-10 310,-10"/>
<text text-anchor="start" x="333.67" y="-15.4" font-family="Times-12" font-size="14.00"> &#160;Providers</text>
<polygon fill="#fb8072" stroke="transparent" points="406,-10 406,-30 426,-30 426,-10 406,-10"/>
<text text-anchor="start" x="429.73" y="-15.4" font-family="Times-12" font-size="14.00"> &#160;Exports</text>
<g id="clust1" class="cluster">
<title>cluster_AuthModule</title>
<polygon fill="none" stroke="black" stroke-dasharray="1,5" points="89.5,-70 89.5,-268 406.5,-268 406.5,-70 89.5,-70"/>
</g>
<g id="clust6" class="cluster">
<title>cluster_AuthModule_providers</title>
<polygon fill="none" stroke="black" points="97.5,-78 97.5,-130 398.5,-130 398.5,-78 97.5,-78"/>
</g>
<g id="clust4" class="cluster">
<title>cluster_AuthModule_exports</title>
<polygon fill="none" stroke="black" points="120.5,-208 120.5,-260 348.5,-260 348.5,-208 120.5,-208"/>
</g>
<!-- AuthGuard  -->
<g id="node1" class="node">
<title>AuthGuard </title>
<polygon fill="#fb8072" stroke="black" points="340.98,-252 258.02,-252 258.02,-216 340.98,-216 340.98,-252"/>
<text text-anchor="middle" x="299.5" y="-229.8" font-family="Times,serif" font-size="14.00">AuthGuard </text>
</g>
<!-- UsuariosService  -->
<g id="node2" class="node">
<title>UsuariosService </title>
<polygon fill="#fb8072" stroke="black" points="240.24,-252 128.76,-252 128.76,-216 240.24,-216 240.24,-252"/>
<text text-anchor="middle" x="184.5" y="-229.8" font-family="Times,serif" font-size="14.00">UsuariosService </text>
</g>
<!-- AuthModule -->
<g id="node3" class="node">
<title>AuthModule</title>
<polygon fill="#8dd3c7" stroke="black" points="250.05,-187 247.05,-191 226.05,-191 223.05,-187 162.95,-187 162.95,-151 250.05,-151 250.05,-187"/>
<text text-anchor="middle" x="206.5" y="-164.8" font-family="Times,serif" font-size="14.00">AuthModule</text>
</g>
<!-- AuthModule&#45;&gt;AuthGuard  -->
<g id="edge1" class="edge">
<title>AuthModule&#45;&gt;AuthGuard </title>
<path fill="none" stroke="black" stroke-dasharray="5,2" d="M245.2,-187.11C245.2,-206.34 245.2,-234 245.2,-234 245.2,-234 248.07,-234 248.07,-234"/>
<polygon fill="black" stroke="black" points="248.07,-237.5 258.07,-234 248.07,-230.5 248.07,-237.5"/>
</g>
<!-- AuthModule&#45;&gt;UsuariosService  -->
<g id="edge2" class="edge">
<title>AuthModule&#45;&gt;UsuariosService </title>
<path fill="none" stroke="black" stroke-dasharray="5,2" d="M201.42,-187.11C201.42,-187.11 201.42,-205.99 201.42,-205.99"/>
<polygon fill="black" stroke="black" points="197.92,-205.99 201.42,-215.99 204.92,-205.99 197.92,-205.99"/>
</g>
<!-- AuthService -->
<g id="node4" class="node">
<title>AuthService</title>
<ellipse fill="#fdb462" stroke="black" cx="331.5" cy="-104" rx="59.11" ry="18"/>
<text text-anchor="middle" x="331.5" y="-99.8" font-family="Times,serif" font-size="14.00">AuthService</text>
</g>
<!-- AuthService&#45;&gt;AuthModule -->
<g id="edge3" class="edge">
<title>AuthService&#45;&gt;AuthModule</title>
<path fill="none" stroke="black" d="M306.47,-120.4C306.47,-139.66 306.47,-169 306.47,-169 306.47,-169 260.06,-169 260.06,-169"/>
<polygon fill="black" stroke="black" points="260.06,-165.5 250.06,-169 260.06,-172.5 260.06,-165.5"/>
</g>
<!-- UsuariosService -->
<g id="node5" class="node">
<title>UsuariosService</title>
<ellipse fill="#fdb462" stroke="black" cx="179.5" cy="-104" rx="74.13" ry="18"/>
<text text-anchor="middle" x="179.5" y="-99.8" font-family="Times,serif" font-size="14.00">UsuariosService</text>
</g>
<!-- UsuariosService&#45;&gt;AuthModule -->
<g id="edge4" class="edge">
<title>UsuariosService&#45;&gt;AuthModule</title>
<path fill="none" stroke="black" d="M206.5,-121.08C206.5,-121.08 206.5,-140.9 206.5,-140.9"/>
<polygon fill="black" stroke="black" points="203,-140.9 206.5,-150.9 210,-140.9 203,-140.9"/>
</g>
</g>
</svg>
