<?xml version="1.0" encoding="UTF-8" standalone="no"?>
<!DOCTYPE svg PUBLIC "-//W3C//DTD SVG 1.1//EN"
 "http://www.w3.org/Graphics/SVG/1.1/DTD/svg11.dtd">
<!-- Generated by graphviz version 2.47.0 (20210316.0004)
 -->
<!-- Title: dependencies Pages: 1 -->
<svg width="636pt" height="211pt"
 viewBox="0.00 0.00 636.00 211.00" xmlns="http://www.w3.org/2000/svg" xmlns:xlink="http://www.w3.org/1999/xlink">
<g id="graph0" class="graph" transform="scale(1 1) rotate(0) translate(4 207)">
<title>dependencies</title>
<polygon fill="white" stroke="transparent" points="-4,4 -4,-207 632,-207 632,4 -4,4"/>
<text text-anchor="start" x="293.01" y="-42.4" font-family="Times-12" font-weight="bold" font-size="14.00">Legend</text>
<polygon fill="#ffffb3" stroke="transparent" points="80,-10 80,-30 100,-30 100,-10 80,-10"/>
<text text-anchor="start" x="103.63" y="-15.4" font-family="Times-12" font-size="14.00"> &#160;Declarations</text>
<polygon fill="#8dd3c7" stroke="transparent" points="193,-10 193,-30 213,-30 213,-10 193,-10"/>
<text text-anchor="start" x="216.73" y="-15.4" font-family="Times-12" font-size="14.00"> &#160;Module</text>
<polygon fill="#80b1d3" stroke="transparent" points="279,-10 279,-30 299,-30 299,-10 279,-10"/>
<text text-anchor="start" x="302.78" y="-15.4" font-family="Times-12" font-size="14.00"> &#160;Bootstrap</text>
<polygon fill="#fdb462" stroke="transparent" points="376,-10 376,-30 396,-30 396,-10 376,-10"/>
<text text-anchor="start" x="399.67" y="-15.4" font-family="Times-12" font-size="14.00"> &#160;Providers</text>
<polygon fill="#fb8072" stroke="transparent" points="472,-10 472,-30 492,-30 492,-10 472,-10"/>
<text text-anchor="start" x="495.73" y="-15.4" font-family="Times-12" font-size="14.00"> &#160;Exports</text>
<g id="clust1" class="cluster">
<title>cluster_GestionModule</title>
<polygon fill="none" stroke="black" stroke-dasharray="1,5" points="8,-70 8,-195 620,-195 620,-70 8,-70"/>
</g>
<g id="clust6" class="cluster">
<title>cluster_GestionModule_providers</title>
<polygon fill="none" stroke="black" points="128,-78 128,-130 612,-130 612,-78 128,-78"/>
</g>
<g id="clust3" class="cluster">
<title>cluster_GestionModule_imports</title>
<polygon fill="none" stroke="black" points="16,-78 16,-130 120,-130 120,-78 16,-78"/>
</g>
<!-- AuthModule -->
<g id="node1" class="node">
<title>AuthModule</title>
<polygon fill="#8dd3c7" stroke="black" points="111.55,-122 108.55,-126 87.55,-126 84.55,-122 24.45,-122 24.45,-86 111.55,-86 111.55,-122"/>
<text text-anchor="middle" x="68" y="-99.8" font-family="Times,serif" font-size="14.00">AuthModule</text>
</g>
<!-- GestionModule -->
<g id="node2" class="node">
<title>GestionModule</title>
<polygon fill="#8dd3c7" stroke="black" points="334.6,-187 331.6,-191 310.6,-191 307.6,-187 231.4,-187 231.4,-151 334.6,-151 334.6,-187"/>
<text text-anchor="middle" x="283" y="-164.8" font-family="Times,serif" font-size="14.00">GestionModule</text>
</g>
<!-- AuthModule&#45;&gt;GestionModule -->
<g id="edge1" class="edge">
<title>AuthModule&#45;&gt;GestionModule</title>
<path fill="none" stroke="black" d="M68,-122.11C68,-141.34 68,-169 68,-169 68,-169 221.23,-169 221.23,-169"/>
<polygon fill="black" stroke="black" points="221.23,-172.5 231.23,-169 221.23,-165.5 221.23,-172.5"/>
</g>
<!-- ClientesService -->
<g id="node3" class="node">
<title>ClientesService</title>
<ellipse fill="#fdb462" stroke="black" cx="532" cy="-104" rx="71.78" ry="18"/>
<text text-anchor="middle" x="532" y="-99.8" font-family="Times,serif" font-size="14.00">ClientesService</text>
</g>
<!-- ClientesService&#45;&gt;GestionModule -->
<g id="edge2" class="edge">
<title>ClientesService&#45;&gt;GestionModule</title>
<path fill="none" stroke="black" d="M532,-122.11C532,-141.34 532,-169 532,-169 532,-169 344.59,-169 344.59,-169"/>
<polygon fill="black" stroke="black" points="344.59,-165.5 334.59,-169 344.59,-172.5 344.59,-165.5"/>
</g>
<!-- ProyectosService -->
<g id="node4" class="node">
<title>ProyectosService</title>
<ellipse fill="#fdb462" stroke="black" cx="364" cy="-104" rx="78.15" ry="18"/>
<text text-anchor="middle" x="364" y="-99.8" font-family="Times,serif" font-size="14.00">ProyectosService</text>
</g>
<!-- ProyectosService&#45;&gt;GestionModule -->
<g id="edge3" class="edge">
<title>ProyectosService&#45;&gt;GestionModule</title>
<path fill="none" stroke="black" d="M310.24,-117.15C310.24,-117.15 310.24,-140.69 310.24,-140.69"/>
<polygon fill="black" stroke="black" points="306.74,-140.69 310.24,-150.69 313.74,-140.69 306.74,-140.69"/>
</g>
<!-- TareasService -->
<g id="node5" class="node">
<title>TareasService</title>
<ellipse fill="#fdb462" stroke="black" cx="202" cy="-104" rx="65.94" ry="18"/>
<text text-anchor="middle" x="202" y="-99.8" font-family="Times,serif" font-size="14.00">TareasService</text>
</g>
<!-- TareasService&#45;&gt;GestionModule -->
<g id="edge4" class="edge">
<title>TareasService&#45;&gt;GestionModule</title>
<path fill="none" stroke="black" d="M249.59,-116.53C249.59,-116.53 249.59,-140.85 249.59,-140.85"/>
<polygon fill="black" stroke="black" points="246.09,-140.85 249.59,-150.85 253.09,-140.85 246.09,-140.85"/>
</g>
</g>
</svg>
