<?xml version="1.0" encoding="UTF-8" standalone="no"?>
<!DOCTYPE svg PUBLIC "-//W3C//DTD SVG 1.1//EN"
 "http://www.w3.org/Graphics/SVG/1.1/DTD/svg11.dtd">
<!-- Generated by graphviz version 2.47.0 (20210316.0004)
 -->
<!-- Title: dependencies Pages: 1 -->
<svg width="2204pt" height="298pt"
 viewBox="0.00 0.00 2204.00 298.00" xmlns="http://www.w3.org/2000/svg" xmlns:xlink="http://www.w3.org/1999/xlink">
<g id="graph0" class="graph" transform="scale(1 1) rotate(0) translate(4 294)">
<title>dependencies</title>
<polygon fill="white" stroke="transparent" points="-4,4 -4,-294 2200,-294 2200,4 -4,4"/>
<text text-anchor="start" x="1077.01" y="-42.4" font-family="Times-12" font-weight="bold" font-size="14.00">Legend</text>
<polygon fill="#ffffb3" stroke="transparent" points="864,-10 864,-30 884,-30 884,-10 864,-10"/>
<text text-anchor="start" x="887.63" y="-15.4" font-family="Times-12" font-size="14.00"> &#160;Declarations</text>
<polygon fill="#8dd3c7" stroke="transparent" points="977,-10 977,-30 997,-30 997,-10 977,-10"/>
<text text-anchor="start" x="1000.73" y="-15.4" font-family="Times-12" font-size="14.00"> &#160;Module</text>
<polygon fill="#80b1d3" stroke="transparent" points="1063,-10 1063,-30 1083,-30 1083,-10 1063,-10"/>
<text text-anchor="start" x="1086.78" y="-15.4" font-family="Times-12" font-size="14.00"> &#160;Bootstrap</text>
<polygon fill="#fdb462" stroke="transparent" points="1160,-10 1160,-30 1180,-30 1180,-10 1160,-10"/>
<text text-anchor="start" x="1183.67" y="-15.4" font-family="Times-12" font-size="14.00"> &#160;Providers</text>
<polygon fill="#fb8072" stroke="transparent" points="1256,-10 1256,-30 1276,-30 1276,-10 1256,-10"/>
<text text-anchor="start" x="1279.73" y="-15.4" font-family="Times-12" font-size="14.00"> &#160;Exports</text>
<g id="clust1" class="cluster">
<title>cluster_AppModule</title>
<polygon fill="none" stroke="black" stroke-dasharray="1,5" points="516,-70 516,-274 802,-274 802,-70 516,-70"/>
</g>
<g id="clust3" class="cluster">
<title>cluster_AppModule_imports</title>
<polygon fill="none" stroke="black" points="662,-78 662,-206 782,-206 782,-78 662,-78"/>
</g>
<g id="clust6" class="cluster">
<title>cluster_AppModule_providers</title>
<polygon fill="none" stroke="black" points="524,-154 524,-206 654,-206 654,-154 524,-154"/>
</g>
<g id="clust7" class="cluster">
<title>cluster_AuthModule</title>
<polygon fill="none" stroke="black" stroke-dasharray="1,5" points="810,-146 810,-214 1363,-214 1363,-146 810,-146"/>
</g>
<g id="clust10" class="cluster">
<title>cluster_AuthModule_exports</title>
<polygon fill="none" stroke="black" points="1127,-154 1127,-206 1355,-206 1355,-154 1127,-154"/>
</g>
<g id="clust12" class="cluster">
<title>cluster_AuthModule_providers</title>
<polygon fill="none" stroke="black" points="818,-154 818,-206 1119,-206 1119,-154 818,-154"/>
</g>
<g id="clust13" class="cluster">
<title>cluster_GestionModule</title>
<polygon fill="none" stroke="black" stroke-dasharray="1,5" points="8,-70 8,-138 508,-138 508,-70 8,-70"/>
</g>
<g id="clust18" class="cluster">
<title>cluster_GestionModule_providers</title>
<polygon fill="none" stroke="black" points="16,-78 16,-130 500,-130 500,-78 16,-78"/>
</g>
<g id="clust19" class="cluster">
<title>cluster_TemplatePlaygroundModule</title>
<polygon fill="none" stroke="black" stroke-dasharray="1,5" points="1371,-70 1371,-282 2188,-282 2188,-70 1371,-70"/>
</g>
<g id="clust20" class="cluster">
<title>cluster_TemplatePlaygroundModule_declarations</title>
<polygon fill="none" stroke="black" points="1966,-78 1966,-130 2180,-130 2180,-78 1966,-78"/>
</g>
<g id="clust24" class="cluster">
<title>cluster_TemplatePlaygroundModule_bootstrap</title>
<polygon fill="none" stroke="black" points="1657,-222 1657,-274 1875,-274 1875,-222 1657,-222"/>
</g>
<g id="clust25" class="cluster">
<title>cluster_TemplatePlaygroundModule_providers</title>
<polygon fill="none" stroke="black" points="1379,-78 1379,-130 1958,-130 1958,-78 1379,-78"/>
</g>
<!-- AuthModule -->
<g id="node1" class="node">
<title>AuthModule</title>
<polygon fill="#8dd3c7" stroke="black" points="773.55,-122 770.55,-126 749.55,-126 746.55,-122 686.45,-122 686.45,-86 773.55,-86 773.55,-122"/>
<text text-anchor="middle" x="730" y="-99.8" font-family="Times,serif" font-size="14.00">AuthModule</text>
</g>
<!-- GestionModule -->
<g id="node2" class="node">
<title>GestionModule</title>
<polygon fill="#8dd3c7" stroke="black" points="773.6,-198 770.6,-202 749.6,-202 746.6,-198 670.4,-198 670.4,-162 773.6,-162 773.6,-198"/>
<text text-anchor="middle" x="722" y="-175.8" font-family="Times,serif" font-size="14.00">GestionModule</text>
</g>
<!-- AuthModule&#45;&gt;GestionModule -->
<g id="edge8" class="edge">
<title>AuthModule&#45;&gt;GestionModule</title>
<path fill="none" stroke="black" d="M729.89,-122.01C729.89,-122.01 729.89,-151.85 729.89,-151.85"/>
<polygon fill="black" stroke="black" points="726.39,-151.85 729.89,-161.85 733.39,-151.85 726.39,-151.85"/>
</g>
<!-- AppModule -->
<g id="node3" class="node">
<title>AppModule</title>
<polygon fill="#8dd3c7" stroke="black" points="763.66,-266 760.66,-270 739.66,-270 736.66,-266 680.34,-266 680.34,-230 763.66,-230 763.66,-266"/>
<text text-anchor="middle" x="722" y="-243.8" font-family="Times,serif" font-size="14.00">AppModule</text>
</g>
<!-- AuthModule&#45;&gt;AppModule -->
<g id="edge1" class="edge">
<title>AuthModule&#45;&gt;AppModule</title>
<path fill="none" stroke="black" d="M686.07,-110C671.08,-110 658.04,-110 658.04,-110 658.04,-110 658.04,-242 658.04,-242 658.04,-242 670.05,-242 670.05,-242"/>
<polygon fill="black" stroke="black" points="670.05,-245.5 680.05,-242 670.05,-238.5 670.05,-245.5"/>
</g>
<!-- AuthGuard  -->
<g id="node5" class="node">
<title>AuthGuard </title>
<polygon fill="#fb8072" stroke="black" points="1347.48,-198 1264.52,-198 1264.52,-162 1347.48,-162 1347.48,-198"/>
<text text-anchor="middle" x="1306" y="-175.8" font-family="Times,serif" font-size="14.00">AuthGuard </text>
</g>
<!-- AuthModule&#45;&gt;AuthGuard  -->
<g id="edge4" class="edge">
<title>AuthModule&#45;&gt;AuthGuard </title>
<path fill="none" stroke="black" stroke-dasharray="5,2" d="M773.77,-94C908.18,-94 1306,-94 1306,-94 1306,-94 1306,-151.76 1306,-151.76"/>
<polygon fill="black" stroke="black" points="1302.5,-151.76 1306,-161.76 1309.5,-151.76 1302.5,-151.76"/>
</g>
<!-- UsuariosService  -->
<g id="node6" class="node">
<title>UsuariosService </title>
<polygon fill="#fb8072" stroke="black" points="1246.74,-198 1135.26,-198 1135.26,-162 1246.74,-162 1246.74,-198"/>
<text text-anchor="middle" x="1191" y="-175.8" font-family="Times,serif" font-size="14.00">UsuariosService </text>
</g>
<!-- AuthModule&#45;&gt;UsuariosService  -->
<g id="edge5" class="edge">
<title>AuthModule&#45;&gt;UsuariosService </title>
<path fill="none" stroke="black" stroke-dasharray="5,2" d="M773.79,-101C888.86,-101 1191,-101 1191,-101 1191,-101 1191,-151.68 1191,-151.68"/>
<polygon fill="black" stroke="black" points="1187.5,-151.68 1191,-161.68 1194.5,-151.68 1187.5,-151.68"/>
</g>
<!-- GestionModule&#45;&gt;AppModule -->
<g id="edge2" class="edge">
<title>GestionModule&#45;&gt;AppModule</title>
<path fill="none" stroke="black" d="M722,-198.22C722,-198.22 722,-219.73 722,-219.73"/>
<polygon fill="black" stroke="black" points="718.5,-219.73 722,-229.73 725.5,-219.73 718.5,-219.73"/>
</g>
<!-- AppService -->
<g id="node4" class="node">
<title>AppService</title>
<ellipse fill="#fdb462" stroke="black" cx="589" cy="-180" rx="56.74" ry="18"/>
<text text-anchor="middle" x="589" y="-175.8" font-family="Times,serif" font-size="14.00">AppService</text>
</g>
<!-- AppService&#45;&gt;AppModule -->
<g id="edge3" class="edge">
<title>AppService&#45;&gt;AppModule</title>
<path fill="none" stroke="black" d="M589,-198.29C589,-220.21 589,-254 589,-254 589,-254 670.28,-254 670.28,-254"/>
<polygon fill="black" stroke="black" points="670.28,-257.5 680.28,-254 670.28,-250.5 670.28,-257.5"/>
</g>
<!-- AuthService -->
<g id="node7" class="node">
<title>AuthService</title>
<ellipse fill="#fdb462" stroke="black" cx="1052" cy="-180" rx="59.11" ry="18"/>
<text text-anchor="middle" x="1052" y="-175.8" font-family="Times,serif" font-size="14.00">AuthService</text>
</g>
<!-- AuthService&#45;&gt;AuthModule -->
<g id="edge6" class="edge">
<title>AuthService&#45;&gt;AuthModule</title>
<path fill="none" stroke="black" d="M1052,-161.83C1052,-140.5 1052,-108 1052,-108 1052,-108 783.76,-108 783.76,-108"/>
<polygon fill="black" stroke="black" points="783.76,-104.5 773.76,-108 783.76,-111.5 783.76,-104.5"/>
</g>
<!-- UsuariosService -->
<g id="node8" class="node">
<title>UsuariosService</title>
<ellipse fill="#fdb462" stroke="black" cx="900" cy="-180" rx="74.13" ry="18"/>
<text text-anchor="middle" x="900" y="-175.8" font-family="Times,serif" font-size="14.00">UsuariosService</text>
</g>
<!-- UsuariosService&#45;&gt;AuthModule -->
<g id="edge7" class="edge">
<title>UsuariosService&#45;&gt;AuthModule</title>
<path fill="none" stroke="black" d="M900,-161.89C900,-142.66 900,-115 900,-115 900,-115 783.78,-115 783.78,-115"/>
<polygon fill="black" stroke="black" points="783.78,-111.5 773.78,-115 783.78,-118.5 783.78,-111.5"/>
</g>
<!-- ClientesService -->
<g id="node9" class="node">
<title>ClientesService</title>
<ellipse fill="#fdb462" stroke="black" cx="420" cy="-104" rx="71.78" ry="18"/>
<text text-anchor="middle" x="420" y="-99.8" font-family="Times,serif" font-size="14.00">ClientesService</text>
</g>
<!-- ClientesService&#45;&gt;GestionModule -->
<g id="edge9" class="edge">
<title>ClientesService&#45;&gt;GestionModule</title>
<path fill="none" stroke="black" d="M487.54,-98C565.26,-98 682.28,-98 682.28,-98 682.28,-98 682.28,-151.8 682.28,-151.8"/>
<polygon fill="black" stroke="black" points="678.78,-151.8 682.28,-161.8 685.78,-151.8 678.78,-151.8"/>
</g>
<!-- ProyectosService -->
<g id="node10" class="node">
<title>ProyectosService</title>
<ellipse fill="#fdb462" stroke="black" cx="252" cy="-104" rx="78.15" ry="18"/>
<text text-anchor="middle" x="252" y="-99.8" font-family="Times,serif" font-size="14.00">ProyectosService</text>
</g>
<!-- ProyectosService&#45;&gt;GestionModule -->
<g id="edge10" class="edge">
<title>ProyectosService&#45;&gt;GestionModule</title>
<path fill="none" stroke="black" d="M252,-122.24C252,-129.43 252,-136 252,-136 252,-136 678.34,-136 678.34,-136 678.34,-136 678.34,-151.85 678.34,-151.85"/>
<polygon fill="black" stroke="black" points="674.84,-151.85 678.34,-161.85 681.84,-151.85 674.84,-151.85"/>
</g>
<!-- TareasService -->
<g id="node11" class="node">
<title>TareasService</title>
<ellipse fill="#fdb462" stroke="black" cx="90" cy="-104" rx="65.94" ry="18"/>
<text text-anchor="middle" x="90" y="-99.8" font-family="Times,serif" font-size="14.00">TareasService</text>
</g>
<!-- TareasService&#45;&gt;GestionModule -->
<g id="edge11" class="edge">
<title>TareasService&#45;&gt;GestionModule</title>
<path fill="none" stroke="black" d="M90,-122.04C90,-134.56 90,-149 90,-149 90,-149 674.4,-149 674.4,-149 674.4,-149 674.4,-151.97 674.4,-151.97"/>
<polygon fill="black" stroke="black" points="670.9,-151.97 674.4,-161.97 677.9,-151.97 670.9,-151.97"/>
</g>
<!-- TemplatePlaygroundComponent -->
<g id="node12" class="node">
<title>TemplatePlaygroundComponent</title>
<polygon fill="#ffffb3" stroke="black" points="2172.25,-122 1973.75,-122 1973.75,-86 2172.25,-86 2172.25,-122"/>
<text text-anchor="middle" x="2073" y="-99.8" font-family="Times,serif" font-size="14.00">TemplatePlaygroundComponent</text>
</g>
<!-- TemplatePlaygroundModule -->
<g id="node13" class="node">
<title>TemplatePlaygroundModule</title>
<polygon fill="#8dd3c7" stroke="black" points="1854.47,-198 1851.47,-202 1830.47,-202 1827.47,-198 1677.53,-198 1677.53,-162 1854.47,-162 1854.47,-198"/>
<text text-anchor="middle" x="1766" y="-175.8" font-family="Times,serif" font-size="14.00">TemplatePlaygroundModule</text>
</g>
<!-- TemplatePlaygroundComponent&#45;&gt;TemplatePlaygroundModule -->
<g id="edge12" class="edge">
<title>TemplatePlaygroundComponent&#45;&gt;TemplatePlaygroundModule</title>
<path fill="none" stroke="black" d="M2073,-122.01C2073,-144.49 2073,-180 2073,-180 2073,-180 1864.8,-180 1864.8,-180"/>
<polygon fill="black" stroke="black" points="1864.8,-176.5 1854.8,-180 1864.8,-183.5 1864.8,-176.5"/>
</g>
<!-- TemplatePlaygroundComponent  -->
<g id="node14" class="node">
<title>TemplatePlaygroundComponent </title>
<polygon fill="#80b1d3" stroke="black" points="1867.25,-266 1664.75,-266 1664.75,-230 1867.25,-230 1867.25,-266"/>
<text text-anchor="middle" x="1766" y="-243.8" font-family="Times,serif" font-size="14.00">TemplatePlaygroundComponent </text>
</g>
<!-- TemplatePlaygroundModule&#45;&gt;TemplatePlaygroundComponent  -->
<g id="edge13" class="edge">
<title>TemplatePlaygroundModule&#45;&gt;TemplatePlaygroundComponent </title>
<path fill="none" stroke="black" stroke-dasharray="1,5" d="M1766,-198.22C1766,-198.22 1766,-219.73 1766,-219.73"/>
<polygon fill="black" stroke="black" points="1762.5,-219.73 1766,-229.73 1769.5,-219.73 1762.5,-219.73"/>
</g>
<!-- HbsRenderService -->
<g id="node15" class="node">
<title>HbsRenderService</title>
<ellipse fill="#fdb462" stroke="black" cx="1867" cy="-104" rx="83.37" ry="18"/>
<text text-anchor="middle" x="1867" y="-99.8" font-family="Times,serif" font-size="14.00">HbsRenderService</text>
</g>
<!-- HbsRenderService&#45;&gt;TemplatePlaygroundModule -->
<g id="edge14" class="edge">
<title>HbsRenderService&#45;&gt;TemplatePlaygroundModule</title>
<path fill="none" stroke="black" d="M1819.03,-119.02C1819.03,-119.02 1819.03,-151.8 1819.03,-151.8"/>
<polygon fill="black" stroke="black" points="1815.53,-151.8 1819.03,-161.8 1822.53,-151.8 1815.53,-151.8"/>
</g>
<!-- TemplateEditorService -->
<g id="node16" class="node">
<title>TemplateEditorService</title>
<ellipse fill="#fdb462" stroke="black" cx="1665" cy="-104" rx="100.7" ry="18"/>
<text text-anchor="middle" x="1665" y="-99.8" font-family="Times,serif" font-size="14.00">TemplateEditorService</text>
</g>
<!-- TemplateEditorService&#45;&gt;TemplatePlaygroundModule -->
<g id="edge15" class="edge">
<title>TemplateEditorService&#45;&gt;TemplatePlaygroundModule</title>
<path fill="none" stroke="black" d="M1721.56,-119.02C1721.56,-119.02 1721.56,-151.8 1721.56,-151.8"/>
<polygon fill="black" stroke="black" points="1718.06,-151.8 1721.56,-161.8 1725.06,-151.8 1718.06,-151.8"/>
</g>
<!-- ZipExportService -->
<g id="node17" class="node">
<title>ZipExportService</title>
<ellipse fill="#fdb462" stroke="black" cx="1467" cy="-104" rx="79.87" ry="18"/>
<text text-anchor="middle" x="1467" y="-99.8" font-family="Times,serif" font-size="14.00">ZipExportService</text>
</g>
<!-- ZipExportService&#45;&gt;TemplatePlaygroundModule -->
<g id="edge16" class="edge">
<title>ZipExportService&#45;&gt;TemplatePlaygroundModule</title>
<path fill="none" stroke="black" d="M1467,-122.01C1467,-144.49 1467,-180 1467,-180 1467,-180 1667.5,-180 1667.5,-180"/>
<polygon fill="black" stroke="black" points="1667.5,-183.5 1677.5,-180 1667.5,-176.5 1667.5,-183.5"/>
</g>
</g>
</svg>
